<svg xmlns="http://www.w3.org/2000/svg" viewBox="0 0 32.0 36.0" width="32" height="36" fill="none" role="img" aria-label="wayfind mark"><defs><linearGradient id="pg" x1="0" y1="0" x2="0.35" y2="1"><stop offset="0" stop-color="#FDA60A"/><stop offset="0.55" stop-color="#FC5F06"/><stop offset="1" stop-color="#FB3502"/></linearGradient><radialGradient id="pgloss" cx="0.35" cy="0.28" r="0.7"><stop offset="0" stop-color="#FFFFFF"/><stop offset="0.5" stop-color="#FFFFFF" stop-opacity="0"/><stop offset="1" stop-color="#FFFFFF" stop-opacity="0"/></radialGradient></defs><g transform="translate(0.00,2.00) scale(1.0000)"><path d="M16 2 C9.4 2 4 7.4 4 14 c0 8.4 12 16 12 16 s12-7.6 12-16 C28 7.4 22.6 2 16 2 Z M16 8.6 a5.4 5.4 0 1 0 0.001 0 Z" fill="url(#pg)" fill-rule="evenodd"/><path d="M16 2 C9.4 2 4 7.4 4 14 c0 8.4 12 16 12 16 s12-7.6 12-16 C28 7.4 22.6 2 16 2 Z M16 8.6 a5.4 5.4 0 1 0 0.001 0 Z" fill="url(#pgloss)" fill-rule="evenodd" opacity="0.35"/></g></svg>