<svg xmlns="http://www.w3.org/2000/svg" viewBox="0 0 568.31 153.00" width="568" height="153" fill="none" role="img" aria-label="wayfind"><defs><linearGradient id="pg" x1="0" y1="0" x2="0.35" y2="1"><stop offset="0" stop-color="#FDA60A"/><stop offset="0.55" stop-color="#FC5F06"/><stop offset="1" stop-color="#FB3502"/></linearGradient><radialGradient id="pgloss" cx="0.35" cy="0.28" r="0.7"><stop offset="0" stop-color="#FFFFFF"/><stop offset="0.5" stop-color="#FFFFFF" stop-opacity="0"/><stop offset="1" stop-color="#FFFFFF" stop-opacity="0"/></radialGradient></defs><g transform="translate(28.00,104.00) scale(0.10000,-0.10000)" fill="#FFFFFF"><path transform="translate(0.0,0)" d="M863 558 712 0H523L435 362L344 0H156L4 558H175L254 159L348 558H529L624 161L702 558Z"/>
<path transform="translate(856.0,0)" d="M274 566Q333 566 377.5 542.0Q422 518 446 479V558H617V0H446V79Q421 40 376.5 16.0Q332 -8 273 -8Q205 -8 149.0 27.5Q93 63 60.5 128.5Q28 194 28 280Q28 366 60.5 431.0Q93 496 149.0 531.0Q205 566 274 566ZM324 417Q273 417 237.5 380.5Q202 344 202 280Q202 216 237.5 178.5Q273 141 324 141Q375 141 410.5 178.0Q446 215 446 279Q446 343 410.5 380.0Q375 417 324 417Z"/>
<path transform="translate(1525.0,0)" d="M632 558 282 -265H98L226 19L-1 558H190L319 209L447 558Z"/>
<path transform="translate(2147.0,0)" d="M342 416H250V0H79V416H17V558H79V574Q79 677 138.0 730.5Q197 784 311 784Q330 784 339 783V638Q290 641 270.0 624.0Q250 607 250 563V558H342Z"/>
<path transform="translate(2497.0,0)" d="M46 708Q46 748 74.5 774.5Q103 801 148 801Q192 801 220.5 774.5Q249 748 249 708Q249 669 220.5 642.5Q192 616 148 616Q103 616 74.5 642.5Q46 669 46 708ZM233 558V0H62V558Z"/>
<path transform="translate(2782.0,0)" d="M617 326V0H447V303Q447 359 418.0 390.0Q389 421 340 421Q291 421 262.0 390.0Q233 359 233 303V0H62V558H233V484Q259 521 303.0 542.5Q347 564 402 564Q500 564 558.5 500.5Q617 437 617 326Z"/>
<path transform="translate(3446.0,0)" d="M274 566Q329 566 374.5 543.0Q420 520 446 481V740H617V0H446V80Q422 40 377.5 16.0Q333 -8 274 -8Q205 -8 149.0 27.5Q93 63 60.5 128.5Q28 194 28 280Q28 366 60.5 431.0Q93 496 149.0 531.0Q205 566 274 566ZM324 417Q273 417 237.5 380.5Q202 344 202 280Q202 216 237.5 178.5Q273 141 324 141Q375 141 410.5 178.0Q446 215 446 279Q446 343 410.5 380.0Q375 417 324 417Z"/></g><g transform="translate(441.37,-1.04) scale(3.5336)"><path d="M16 2 C9.4 2 4 7.4 4 14 c0 8.4 12 16 12 16 s12-7.6 12-16 C28 7.4 22.6 2 16 2 Z M16 8.6 a5.4 5.4 0 1 0 0.001 0 Z" fill="url(#pg)" fill-rule="evenodd"/><path d="M16 2 C9.4 2 4 7.4 4 14 c0 8.4 12 16 12 16 s12-7.6 12-16 C28 7.4 22.6 2 16 2 Z M16 8.6 a5.4 5.4 0 1 0 0.001 0 Z" fill="url(#pgloss)" fill-rule="evenodd" opacity="0.35"/></g></svg>