<svg xmlns="http://www.w3.org/2000/svg" viewBox="0 0 550.61 153.00" width="551" height="153" fill="none" role="img" aria-label="wayfind"><defs><linearGradient id="pg" x1="0" y1="0" x2="0.35" y2="1"><stop offset="0" stop-color="#FDA60A"/><stop offset="0.55" stop-color="#FC5F06"/><stop offset="1" stop-color="#FB3502"/></linearGradient><radialGradient id="pgloss" cx="0.35" cy="0.28" r="0.7"><stop offset="0" stop-color="#FFFFFF"/><stop offset="0.5" stop-color="#FFFFFF" stop-opacity="0"/><stop offset="1" stop-color="#FFFFFF" stop-opacity="0"/></radialGradient></defs><g transform="translate(28.00,104.00) scale(0.10000,-0.10000)" fill="#FFFFFF"><path transform="translate(0.0,0)" d="M815 551 644 0H524L413 407L302 0H182L10 551H126L241 108L358 551H477L589 110L703 551Z"/>
<path transform="translate(815.0,0)" d="M297 560Q362 560 410.5 534.5Q459 509 488 471V551H603V0H488V82Q459 43 409.0 17.0Q359 -9 295 -9Q224 -9 165.0 27.5Q106 64 71.5 129.5Q37 195 37 278Q37 361 71.5 425.0Q106 489 165.5 524.5Q225 560 297 560ZM321 461Q277 461 239.0 439.5Q201 418 177.5 376.5Q154 335 154 278Q154 221 177.5 178.0Q201 135 239.5 112.5Q278 90 321 90Q365 90 403.0 112.0Q441 134 464.5 176.5Q488 219 488 276Q488 333 464.5 375.0Q441 417 403.0 439.0Q365 461 321 461Z"/>
<path transform="translate(1483.0,0)" d="M571 551 233 -259H115L227 9L10 551H137L292 131L453 551Z"/>
<path transform="translate(2055.0,0)" d="M306 458H204V0H89V458H24V551H89V590Q89 685 139.5 728.5Q190 772 298 772V677Q246 677 225.0 657.5Q204 638 204 590V551H306Z"/>
<path transform="translate(2377.0,0)" d="M60 697Q60 728 81.0 749.0Q102 770 133 770Q163 770 184.0 749.0Q205 728 205 697Q205 666 184.0 645.0Q163 624 133 624Q102 624 81.0 645.0Q60 666 60 697ZM189 551V0H75V551Z"/>
<path transform="translate(2631.0,0)" d="M579 325V0H466V308Q466 382 429.0 421.5Q392 461 328 461Q264 461 226.5 421.5Q189 382 189 308V0H75V551H189V488Q217 522 260.5 541.0Q304 560 353 560Q418 560 469.5 533.0Q521 506 550.0 453.0Q579 400 579 325Z"/>
<path transform="translate(3270.0,0)" d="M298 560Q352 560 404.5 536.5Q457 513 488 474V740H603V0H488V83Q460 43 410.5 17.0Q361 -9 297 -9Q225 -9 165.5 27.5Q106 64 71.5 129.5Q37 195 37 278Q37 361 71.5 425.0Q106 489 165.5 524.5Q225 560 298 560ZM321 461Q277 461 239.0 439.5Q201 418 177.5 376.5Q154 335 154 278Q154 221 177.5 178.0Q201 135 239.5 112.5Q278 90 321 90Q365 90 403.0 112.0Q441 134 464.5 176.5Q488 219 488 276Q488 333 464.5 375.0Q441 417 403.0 439.0Q365 461 321 461Z"/></g><g transform="translate(423.67,-1.04) scale(3.5336)"><path d="M16 2 C9.4 2 4 7.4 4 14 c0 8.4 12 16 12 16 s12-7.6 12-16 C28 7.4 22.6 2 16 2 Z M16 8.6 a5.4 5.4 0 1 0 0.001 0 Z" fill="url(#pg)" fill-rule="evenodd"/><path d="M16 2 C9.4 2 4 7.4 4 14 c0 8.4 12 16 12 16 s12-7.6 12-16 C28 7.4 22.6 2 16 2 Z M16 8.6 a5.4 5.4 0 1 0 0.001 0 Z" fill="url(#pgloss)" fill-rule="evenodd" opacity="0.35"/></g></svg>